HIERARCHY
ROOT Root
{
  OFFSET 0.0 0.0 0.0
  CHANNELS 6 Xposition Yposition Zposition Zrotation Yrotation Xrotation
  JOINT Hips
  {
    OFFSET 0.0 100.0 0.0
    CHANNELS 6 Xposition Yposition Zposition Zrotation Yrotation Xrotation
    JOINT Spine1
    {
      OFFSET -0.013727 5.003763 -0.053727
      CHANNELS 3 Zrotation Yrotation Xrotation
      JOINT Spine2
      {
        OFFSET -0.0 7.125301 -0.029825
        CHANNELS 3 Zrotation Yrotation Xrotation
        JOINT Chest
        {
          OFFSET -1e-06 7.550063 -0.815971
          CHANNELS 3 Zrotation Yrotation Xrotation
          JOINT Neck1
          {
            OFFSET -0.181677 26.311295 -0.553348
            CHANNELS 3 Zrotation Yrotation Xrotation
            JOINT Neck2
            {
              OFFSET -3e-06 7.709397 2.302585
              CHANNELS 3 Zrotation Yrotation Xrotation
              JOINT Head
              {
                OFFSET -5e-06 6.128916 1.953709
                CHANNELS 3 Zrotation Yrotation Xrotation
                JOINT HeadEnd
                {
                  OFFSET 0.003598 16.065403 -1.835379
                  CHANNELS 3 Zrotation Yrotation Xrotation
                }
                JOINT Jaw
                {
                  OFFSET 0.002637 0.475592 3.094941
                  CHANNELS 3 Zrotation Yrotation Xrotation
                }
                JOINT LeftEye
                {
                  OFFSET 3.206381 5.380205 7.586883
                  CHANNELS 3 Zrotation Yrotation Xrotation
                }
                JOINT RightEye
                {
                  OFFSET -3.22244 5.361869 7.558234
                  CHANNELS 3 Zrotation Yrotation Xrotation
                }
              }
            }
          }
          JOINT LeftShoulder
          {
            OFFSET 1.621652 23.237164 5.113413
            CHANNELS 3 Zrotation Yrotation Xrotation
            JOINT LeftArm
            {
              OFFSET 14.919846 2e-06 -5.502326
              CHANNELS 3 Zrotation Yrotation Xrotation
              JOINT LeftForeArm
              {
                OFFSET 28.739307 0.0 -0.002588
                CHANNELS 3 Zrotation Yrotation Xrotation
                JOINT LeftHand
                {
                  OFFSET 27.093981 -1e-06 0.002609
                  CHANNELS 3 Zrotation Yrotation Xrotation
                  JOINT LeftHandThumb1
                  {
                    OFFSET 2.276482 -1.392045 3.191413
                    CHANNELS 3 Zrotation Yrotation Xrotation
                    JOINT LeftHandThumb2
                    {
                      OFFSET 4.012836 -1.828127 1.641654
                      CHANNELS 3 Zrotation Yrotation Xrotation
                      JOINT LeftHandThumb3
                      {
                        OFFSET 2.798515 0.0 -3e-06
                        CHANNELS 3 Zrotation Yrotation Xrotation
                        JOINT LeftHandThumbEnd
                        {
                          OFFSET 3.180793 -4e-06 4e-06
                          CHANNELS 3 Zrotation Yrotation Xrotation
                        }
                      }
                    }
                  }
                  JOINT LeftHandIndex1
                  {
                    OFFSET 3.247555 -0.531998 2.296169
                    CHANNELS 3 Zrotation Yrotation Xrotation
                    JOINT LeftHandIndex2
                    {
                      OFFSET 6.364578 0.01206 0.1786
                      CHANNELS 3 Zrotation Yrotation Xrotation
                      JOINT LeftHandIndex3
                      {
                        OFFSET 3.662364 0.0 0.0
                        CHANNELS 3 Zrotation Yrotation Xrotation
                        JOINT LeftHandIndex4
                        {
                          OFFSET 2.329242 4e-06 4e-06
                          CHANNELS 3 Zrotation Yrotation Xrotation
                          JOINT LeftHandIndexEnd
                          {
                            OFFSET 2.759615 -0.180537 -0.113024
                            CHANNELS 3 Zrotation Yrotation Xrotation
                          }
                        }
                      }
                    }
                  }
                  JOINT LeftHandMiddle1
                  {
                    OFFSET 3.163495 0.240981 1.000332
                    CHANNELS 3 Zrotation Yrotation Xrotation
                    JOINT LeftHandMiddle2
                    {
                      OFFSET 6.19078 -0.259278 -1.002548
                      CHANNELS 3 Zrotation Yrotation Xrotation
                      JOINT LeftHandMiddle3
                      {
                        OFFSET 4.35652 -4e-06 -1e-06
                        CHANNELS 3 Zrotation Yrotation Xrotation
                        JOINT LeftHandMiddle4
                        {
                          OFFSET 2.996877 -8e-06 0.0
                          CHANNELS 3 Zrotation Yrotation Xrotation
                          JOINT LeftHandMiddleEnd
                          {
                            OFFSET 2.304287 -0.294569 -0.031741
                            CHANNELS 3 Zrotation Yrotation Xrotation
                          }
                        }
                      }
                    }
                  }
                  JOINT LeftHandRing1
                  {
                    OFFSET 2.882643 -0.053652 -0.322543
                    CHANNELS 3 Zrotation Yrotation Xrotation
                    JOINT LeftHandRing2
                    {
                      OFFSET 5.854541 -0.486202 -1.373841
                      CHANNELS 3 Zrotation Yrotation Xrotation
                      JOINT LeftHandRing3
                      {
                        OFFSET 4.350578 0.0 3e-06
                        CHANNELS 3 Zrotation Yrotation Xrotation
                        JOINT LeftHandRing4
                        {
                          OFFSET 2.651321 7e-06 2e-06
                          CHANNELS 3 Zrotation Yrotation Xrotation
                          JOINT LeftHandRingEnd
                          {
                            OFFSET 1.936105 0.077687 -7.1e-05
                            CHANNELS 3 Zrotation Yrotation Xrotation
                          }
                        }
                      }
                    }
                  }
                  JOINT LeftHandPinky1
                  {
                    OFFSET 2.8655 -0.310005 -1.600378
                    CHANNELS 3 Zrotation Yrotation Xrotation
                    JOINT LeftHandPinky2
                    {
                      OFFSET 5.087849 -1.331141 -1.77123
                      CHANNELS 3 Zrotation Yrotation Xrotation
                      JOINT LeftHandPinky3
                      {
                        OFFSET 3.070974 4e-06 0.0
                        CHANNELS 3 Zrotation Yrotation Xrotation
                        JOINT LeftHandPinky4
                        {
                          OFFSET 1.549672 0.0 1e-06
                          CHANNELS 3 Zrotation Yrotation Xrotation
                          JOINT LeftHandPinkyEnd
                          {
                            OFFSET 1.944893 -0.157802 0.057219
                            CHANNELS 3 Zrotation Yrotation Xrotation
                          }
                        }
                      }
                    }
                  }
                }
              }
            }
          }
          JOINT RightShoulder
          {
            OFFSET -1.380118 23.180309 5.214158
            CHANNELS 3 Zrotation Yrotation Xrotation
            JOINT RightArm
            {
              OFFSET -15.037196 1.2e-05 -5.545604
              CHANNELS 3 Zrotation Yrotation Xrotation
              JOINT RightForeArm
              {
                OFFSET -28.736639 2e-06 -0.002597
                CHANNELS 3 Zrotation Yrotation Xrotation
                JOINT RightHand
                {
                  OFFSET -27.133619 -0.0 0.002613
                  CHANNELS 3 Zrotation Yrotation Xrotation
                  JOINT RightHandThumb1
                  {
                    OFFSET -2.274032 -1.383988 3.163127
                    CHANNELS 3 Zrotation Yrotation Xrotation
                    JOINT RightHandThumb2
                    {
                      OFFSET -4.011429 -1.827466 1.640914
                      CHANNELS 3 Zrotation Yrotation Xrotation
                      JOINT RightHandThumb3
                      {
                        OFFSET -2.794935 -4e-06 -3e-06
                        CHANNELS 3 Zrotation Yrotation Xrotation
                        JOINT RightHandThumbEnd
                        {
                          OFFSET -3.183852 4e-06 1e-06
                          CHANNELS 3 Zrotation Yrotation Xrotation
                        }
                      }
                    }
                  }
                  JOINT RightHandIndex1
                  {
                    OFFSET -3.253266 -0.520057 2.282866
                    CHANNELS 3 Zrotation Yrotation Xrotation
                    JOINT RightHandIndex2
                    {
                      OFFSET -6.341917 0.012471 0.178266
                      CHANNELS 3 Zrotation Yrotation Xrotation
                      JOINT RightHandIndex3
                      {
                        OFFSET -3.654871 -8e-06 -0.0
                        CHANNELS 3 Zrotation Yrotation Xrotation
                        JOINT RightHandIndex4
                        {
                          OFFSET -2.327586 0.0 1e-06
                          CHANNELS 3 Zrotation Yrotation Xrotation
                          JOINT RightHandIndexEnd
                          {
                            OFFSET -2.76179 -0.180656 -0.113078
                            CHANNELS 3 Zrotation Yrotation Xrotation
                          }
                        }
                      }
                    }
                  }
                  JOINT RightHandMiddle1
                  {
                    OFFSET -3.168106 0.246593 1.00103
                    CHANNELS 3 Zrotation Yrotation Xrotation
                    JOINT RightHandMiddle2
                    {
                      OFFSET -6.180828 -0.258836 -1.000895
                      CHANNELS 3 Zrotation Yrotation Xrotation
                      JOINT RightHandMiddle3
                      {
                        OFFSET -4.348901 0.0 -0.0
                        CHANNELS 3 Zrotation Yrotation Xrotation
                        JOINT RightHandMiddle4
                        {
                          OFFSET -3.00024 -4e-06 -2e-06
                          CHANNELS 3 Zrotation Yrotation Xrotation
                          JOINT RightHandMiddleEnd
                          {
                            OFFSET -2.30252 -0.29437 -0.031706
                            CHANNELS 3 Zrotation Yrotation Xrotation
                          }
                        }
                      }
                    }
                  }
                  JOINT RightHandRing1
                  {
                    OFFSET -2.88569 -0.067952 -0.308858
                    CHANNELS 3 Zrotation Yrotation Xrotation
                    JOINT RightHandRing2
                    {
                      OFFSET -5.854198 -0.48613 -1.373731
                      CHANNELS 3 Zrotation Yrotation Xrotation
                      JOINT RightHandRing3
                      {
                        OFFSET -4.33881 -4e-06 -0.0
                        CHANNELS 3 Zrotation Yrotation Xrotation
                        JOINT RightHandRing4
                        {
                          OFFSET -2.654903 -4e-06 4e-06
                          CHANNELS 3 Zrotation Yrotation Xrotation
                          JOINT RightHandRingEnd
                          {
                            OFFSET -1.933568 0.077527 -5.2e-05
                            CHANNELS 3 Zrotation Yrotation Xrotation
                          }
                        }
                      }
                    }
                  }
                  JOINT RightHandPinky1
                  {
                    OFFSET -2.866425 -0.342796 -1.584145
                    CHANNELS 3 Zrotation Yrotation Xrotation
                    JOINT RightHandPinky2
                    {
                      OFFSET -5.091371 -1.332055 -1.772385
                      CHANNELS 3 Zrotation Yrotation Xrotation
                      JOINT RightHandPinky3
                      {
                        OFFSET -3.062664 -4e-06 1e-06
                        CHANNELS 3 Zrotation Yrotation Xrotation
                        JOINT RightHandPinky4
                        {
                          OFFSET -1.546529 4e-06 -2e-06
                          CHANNELS 3 Zrotation Yrotation Xrotation
                          JOINT RightHandPinkyEnd
                          {
                            OFFSET -1.945119 -0.157718 0.057211
                            CHANNELS 3 Zrotation Yrotation Xrotation
                          }
                        }
                      }
                    }
                  }
                }
              }
            }
          }
        }
      }
    }
    JOINT LeftLeg
    {
      OFFSET 10.043214 -8.434526 2.595655
      CHANNELS 3 Zrotation Yrotation Xrotation
      JOINT LeftShin
      {
        OFFSET -1e-06 -43.221752 -0.802913
        CHANNELS 3 Zrotation Yrotation Xrotation
        JOINT LeftFoot
        {
          OFFSET 1e-06 -42.155094 -3.481523
          CHANNELS 3 Zrotation Yrotation Xrotation
          JOINT LeftToeBase
          {
            OFFSET 0.0 -5.059472 13.231529
            CHANNELS 3 Zrotation Yrotation Xrotation
            JOINT LeftToeEnd
            {
              OFFSET -0.009607 -1.647619 6.513017
              CHANNELS 3 Zrotation Yrotation Xrotation
            }
          }
        }
      }
    }
    JOINT RightLeg
    {
      OFFSET -10.047278 -8.29526 2.620317
      CHANNELS 3 Zrotation Yrotation Xrotation
      JOINT RightShin
      {
        OFFSET 1e-06 -43.362206 -0.805556
        CHANNELS 3 Zrotation Yrotation Xrotation
        JOINT RightFoot
        {
          OFFSET 2e-06 -42.117393 -3.478398
          CHANNELS 3 Zrotation Yrotation Xrotation
          JOINT RightToeBase
          {
            OFFSET -0.0 -5.079609 13.284196
            CHANNELS 3 Zrotation Yrotation Xrotation
            JOINT RightToeEnd
            {
              OFFSET 0.009532 -1.634378 6.460591
              CHANNELS 3 Zrotation Yrotation Xrotation
            }
          }
        }
      }
    }
  }
}
MOTION
Frames: 4
Frame Time: 0.03333333333333333
0.086425 0.0 -0.546358 0.0 0.070189 0.0 0.0 99.750061 0.0 -0.662422 -0.007269 -0.628595 1.369827 -0.076255 1.782011 -0.040656 -0.893843 -4.692751 -0.661661 -3.096593 13.207887 -6.67825 7.627287 16.233185 0.042024 1.8907 -3.928377 1.707898 1.605358 -12.18952 -0.000367 4.6e-05 2e-05 -0.024414 0.117954 0.021747 0.636915 -3.604982 -10.661654 -0.684226 3.844245 -10.663573 -16.5979 -2.564789 18.187407 -66.350456 -4.251954 -4.208663 -0.923884 -28.191994 0.281463 1.028283 -4.72644 10.483837 -5.913408 9.794606 0.850716 -10.948139 -0.339041 7.205145 -0.000885 8.781554 -0.018847 -15.704198 17.983532 6.389259 -1.846292 2.501782 -2.521698 -10.177393 4.696879 4.615899 -21.004726 0.01406 0.008674 -21.310604 2.468055 -3.60812 0.020151 -0.004069 -0.009407 -1.370639 2.271286 -0.760746 -21.351635 0.570304 3.018259 -13.841869 0.006489 0.008935 -23.936377 -0.243539 -0.849769 -61.236683 2.654749 -0.904691 -0.300557 1.71709 0.816034 -14.215468 0.073287 1.310448 -34.251011 -0.263067 0.975415 -20.035261 0.978302 1.212606 0.002986 0.002852 0.002074 -3.465245 0.843902 0.470633 -15.923473 -3.21306 3.030973 -6.352992 -0.004031 0.000515 -18.127691 3.664623 -4.919511 0.00874 0.00352 0.007583 16.253649 5.842638 19.741508 66.064453 9.605191 7.441022 -0.400566 22.164694 -0.182515 -1.317803 -4.876071 -2.100113 2.244933 -5.160797 -2.954764 14.280685 -0.876711 7.05514 0.003928 -12.71599 0.007053 15.83923 -17.9891 3.034607 1.670379 -1.957741 -2.899446 4.736719 -4.183614 4.991037 11.031818 -0.005492 0.001567 12.123331 -3.744278 -2.871803 -0.005506 -0.001904 -0.004892 1.301673 -1.953054 -1.509614 14.823286 0.580251 3.860453 14.272921 -1.347908 -6.676024 19.731096 0.136097 -0.660529 50.653522 -0.436994 -6.452039 0.365674 -1.543406 -0.056575 20.25441 3.70727 2.326107 18.817179 -0.010061 -0.003558 10.761867 -0.487065 1.403522 0.00064 1.1e-05 0.0 3.3089 0.258431 -0.609415 21.485277 11.88404 2.278459 8.188053 -0.000125 -0.005638 18.442778 -3.814976 -4.963562 0.005998 -0.002814 0.001134 2.614616 3.00128 -0.127254 0.036233 -0.133893 10.386532 -5.839274 6.28512 -10.141103 1.643139 -2.039209 -1.115368 -0.00032 0.001338 -0.006597 -3.180115 0.490182 -1.246702 -0.026231 0.078678 8.955195 7.160167 -6.887116 -7.570249 -1.444073 0.919893 -0.605248 -0.000637 -0.00296 0.005682 
0.088714 0.0 -0.390734 0.0 0.029735 0.0 0.0 99.727287 0.0 -0.676904 -0.008347 -0.706494 1.384495 -0.088057 1.641397 -0.053409 -0.889343 -4.72434 -0.637645 -3.093001 13.094558 -6.743819 7.557331 15.505117 0.064668 2.032 -3.920007 1.62857 1.809933 -12.6066 0.000492 -0.001657 0.00134 -0.022702 0.118519 0.038235 0.634737 -3.608509 -10.672276 -0.68137 3.847394 -10.668983 -16.58037 -2.673576 18.107635 -66.4198 -4.20463 -4.622686 -0.962015 -28.002237 0.27479 0.95898 -4.609037 10.537419 -5.883658 9.853577 0.692262 -10.911574 -0.334205 7.174092 0.001243 8.787935 -0.002587 -15.705235 17.935057 6.35896 -1.853579 2.503767 -2.534153 -10.179173 4.68403 4.630594 -21.007044 -0.004329 0.001809 -21.293806 2.44207 -3.602903 0.011328 -0.007307 0.000246 -1.372188 2.249056 -0.759265 -21.359575 0.571765 2.99517 -13.834819 -0.003376 -0.003493 -23.891916 -0.241338 -0.858321 -61.177719 2.628017 -0.873747 -0.299832 1.691561 0.821091 -14.232676 0.082052 1.300518 -34.268684 -0.307667 0.954182 -20.062822 0.971687 1.213845 -0.009628 -0.009348 -0.005447 -3.467652 0.809565 0.470278 -15.931313 -3.197161 3.007161 -6.355434 -0.005985 0.000253 -18.169184 3.641559 -4.908694 -0.000163 -0.000441 0.000651 16.229502 5.902061 19.768682 66.166588 9.511279 7.330407 -0.360279 22.164635 -0.172144 -1.390001 -4.926636 -1.738491 2.249488 -5.259648 -3.145326 14.28871 -0.814051 6.962297 -0.005688 -12.675628 0.007364 15.790578 -17.923389 3.021147 1.664803 -1.955852 -2.877538 4.725996 -4.163737 4.994225 11.016521 0.00398 -0.001841 12.11036 -3.747444 -2.864365 0.004681 0.003704 0.002853 1.289173 -1.919752 -1.504177 14.804198 0.559419 3.866672 14.233109 -1.339714 -6.664273 19.647524 0.150125 -0.653452 50.451332 -0.43325 -6.419075 0.349562 -1.501765 -0.028856 20.218655 3.67452 2.317176 18.768908 0.002045 -0.005093 10.739111 -0.490389 1.400396 0.009374 -0.000125 -0.001063 3.270451 0.318514 -0.599802 21.506607 11.821198 2.277411 8.160794 -0.001523 -0.001626 18.419342 -3.799655 -4.932991 -0.000686 0.004147 -0.0029 2.649976 2.937684 0.068046 0.031955 -0.14189 10.367256 -5.84653 6.33344 -10.190394 1.643841 -2.043316 -1.09086 0.001215 -0.000497 0.001377 -3.134214 0.567087 -1.073802 -0.027465 0.062642 8.97199 7.167328 -6.853737 -7.750137 -1.442731 0.921801 -0.561289 0.000314 6.8e-05 0.002658 
0.060854 0.0 -0.277479 0.0 -0.013526 0.0 0.0 99.709526 0.0 -0.693503 -0.009262 -0.765121 1.394449 -0.074252 1.520899 -0.056689 -0.910324 -4.749864 -0.619342 -3.102809 13.009572 -6.811515 7.531622 14.917704 0.085742 2.195868 -3.917696 1.579138 1.990401 -13.001131 0.000551 -0.00164 0.002181 -0.017825 0.121071 0.040594 0.63793 -3.605621 -10.664112 -0.674173 3.858764 -10.658971 -16.666983 -2.775809 18.011122 -66.409882 -4.071848 -5.039181 -0.982966 -27.900553 0.274473 0.818026 -4.519485 10.655704 -5.904967 9.779397 0.881129 -10.90817 -0.309877 7.228266 -0.001745 8.800324 0.008275 -15.747512 17.934427 6.375438 -1.850118 2.50092 -2.522505 -10.179623 4.695208 4.605348 -21.016834 0.006427 0.012686 -21.252249 2.460518 -3.616032 0.000186 0.003532 0.001494 -1.373748 2.263968 -0.758597 -21.372982 0.569395 3.011658 -13.840571 0.003383 -0.012622 -23.961275 -0.240018 -0.854751 -61.342682 2.66036 -0.897859 -0.301365 1.714588 0.814633 -14.242462 0.06967 1.298185 -34.329899 -0.286941 0.969656 -20.074522 0.974934 1.215251 0.001971 0.000212 0.006184 -3.468495 0.828076 0.47731 -15.934382 -3.197156 2.993978 -6.344809 0.004807 0.007686 -18.171701 3.639891 -4.918002 0.010091 -0.001126 -0.000407 16.288792 5.973781 19.871807 66.330276 9.416804 7.221737 -0.336046 22.248196 -0.171124 -1.485821 -5.014153 -1.372628 2.236505 -5.175234 -3.062183 14.271659 -0.879563 6.998968 0.002591 -12.729171 0.00584 15.836257 -17.986202 3.037282 1.668423 -1.955015 -2.884251 4.738535 -4.185139 4.973145 11.046927 0.002612 0.01378 12.155128 -3.752532 -2.884599 0.005571 0.004347 0.000296 1.295824 -1.953047 -1.500426 14.817503 0.592818 3.851415 14.25547 -1.343597 -6.667732 19.624653 0.146841 -0.657507 50.403339 -0.43733 -6.410142 0.357193 -1.54918 -0.039827 20.242075 3.73963 2.323575 18.805658 0.000205 -0.007792 10.747932 -0.488521 1.408879 0.009866 0.000706 0.002823 3.298741 0.254457 -0.604253 21.506004 11.925363 2.287306 8.17014 -0.002528 -0.005886 18.454124 -3.804764 -4.951393 -0.008913 -0.000326 0.002513 2.69505 2.944004 0.217777 0.027883 -0.16354 10.375854 -5.902573 6.345061 -10.293889 1.645534 -2.041643 -1.117922 -8.6e-05 -0.003992 0.004362 -3.103274 0.637928 -0.953954 -0.021074 0.057062 9.018776 7.1859 -6.799453 -7.921008 -1.449157 0.938678 -0.549573 0.00019 -0.004305 -0.003467 
0.047056 0.0 -0.168243 0.0 -0.053374 0.0 0.0 99.710144 0.0 -0.707933 -0.00988 -0.799409 1.40044 -0.069753 1.423252 -0.055858 -0.946203 -4.780606 -0.601683 -3.084758 12.910929 -6.837468 7.47502 14.332575 0.100104 2.338882 -3.93091 1.592574 2.175803 -13.281 0.00054 0.003458 -1.1e-05 -0.020495 0.124612 0.053897 0.631391 -3.614587 -10.654071 -0.672353 3.866074 -10.641505 -16.676327 -2.796804 17.970135 -66.382797 -4.028533 -5.433451 -1.009186 -27.656641 0.287077 0.669226 -4.429817 10.767747 -5.913493 9.812696 0.829291 -10.896223 -0.317759 7.194222 0.008885 8.789294 0.008994 -15.74328 17.862192 6.341325 -1.852199 2.500762 -2.501487 -10.187867 4.682222 4.610157 -21.024742 -0.010343 -0.001835 -21.29406 2.445845 -3.598101 -0.001133 -0.001174 -0.000455 -1.36953 2.253657 -0.746949 -21.395864 0.566411 3.008715 -13.866689 -0.005643 0.013386 -24.028336 -0.282388 -0.830896 -61.413845 2.683194 -0.861597 -0.303226 1.696471 0.845032 -14.245973 0.069815 1.27921 -34.308094 -0.293777 0.986104 -20.077599 0.946836 1.213728 0.007541 -1.3e-05 0.00319 -3.474395 0.804322 0.495127 -15.940483 -3.190114 2.990098 -6.36553 -0.008561 0.004999 -18.161367 3.642427 -4.90336 -0.009834 -0.001668 -0.00401 16.304335 6.006207 19.869698 66.41275 9.337303 7.099175 -0.323341 22.256485 -0.143498 -1.562858 -5.064564 -1.125663 2.298843 -5.182313 -3.025937 14.259382 -0.866577 7.008614 0.004076 -12.71373 0.003162 15.887309 -17.989845 3.038034 1.66884 -1.956571 -2.882041 4.743933 -4.176722 4.976282 11.064264 0.00163 0.009431 12.186843 -3.754289 -2.877016 -0.007037 0.002787 0.001428 1.296204 -1.937837 -1.506048 14.838702 0.572942 3.878665 14.277312 -1.33175 -6.678226 19.711441 0.134633 -0.644362 50.650124 -0.471621 -6.432685 0.360916 -1.528844 -0.038793 20.266479 3.711156 2.324139 18.86245 -0.007515 0.003569 10.769268 -0.484698 1.393763 0.019567 0.001589 0.005994 3.321775 0.282782 -0.613603 21.501806 11.871363 2.278763 8.201097 0.000289 0.00709 18.46336 -3.804808 -4.950375 0.00032 -0.00027 -0.003411 2.735675 2.959457 0.425866 0.025089 -0.184325 10.17852 -5.957134 6.379093 -10.340939 1.646928 -2.049053 -1.151812 -0.000372 0.0014 0.003868 -3.072601 0.677696 -0.758467 -0.020809 0.062161 8.804546 7.163415 -6.771301 -7.842237 -1.445539 0.94889 -0.573801 7.7e-05 0.000599 -0.000878 
